<?xml version="1.0" standalone="no"?><!DOCTYPE svg PUBLIC "-//W3C//DTD SVG 1.1//EN" "http://www.w3.org/Graphics/SVG/1.1/DTD/svg11.dtd"><svg t="1650120482774" class="icon" viewBox="0 0 1024 1024" version="1.1" xmlns="http://www.w3.org/2000/svg" p-id="2687" xmlns:xlink="http://www.w3.org/1999/xlink" width="32" height="32"><defs><style type="text/css"></style></defs><path d="M512 512m-512 0a512 512 0 1 0 1024 0 512 512 0 1 0-1024 0Z" fill="#5A91F7" p-id="2688"></path><path d="M519.168 754.944c-16.384 0-32.256-6.4-43.904-18.048l-160.896-160-2.304-2.304c-54.4-56.448-53.376-146.048 2.304-201.216 56.704-56.192 148.096-56.192 204.672 0 16.128-16 35.712-28.032 57.344-35.072a564.3904 564.3904 0 0 0-49.664 56.704c-26.88 36.224-51.968 73.728-75.136 112.512l-0.128 0.256c-13.44 21.76-27.392 44.16-41.984 66.176-7.424 9.344-8.832 22.144-3.712 32.896 6.016 10.752 17.536 17.28 29.824 16.768 6.272 0 12.416-1.408 17.92-4.224l0.512-0.256 40.576-23.424c6.656-1.792 12.288-6.144 15.744-12.032 3.2-6.784 3.968-14.592 1.92-21.76-2.048-22.528 3.968-45.184 16.896-63.744 19.2 6.528 39.424 9.856 59.648 9.984 29.952 0.384 59.264-8.192 84.352-24.448 13.056-8.704 24.448-19.456 33.92-32 8.32-11.008 15.104-23.04 20.352-35.712 7.424-2.56 14.464-5.888 21.248-9.984a143.36 143.36 0 0 1-22.272 168.064l-2.56 2.688-160.896 159.872c-11.648 11.904-27.392 18.304-43.776 18.304z" fill="#FFFFFF" p-id="2689"></path><path d="M789.632 265.216c-21.888-17.536-74.624-13.184-147.072 41.728-103.168 76.8-149.248 177.792-215.168 276.608-11.008 15.36 6.528 24.192 19.712 17.536l41.728-24.192c6.528-2.176 8.832-2.176 6.528-13.184a122.88 122.88 0 0 1 28.544-89.984c72.448 30.72 160.256 13.184 190.976-74.624 39.808-12.416 71.04-43.52 83.456-83.456 6.656-21.888 4.48-41.728-8.704-50.432z" fill="#D6E8FD" p-id="2690"></path></svg>