<?xml version="1.0" standalone="no"?><!DOCTYPE svg PUBLIC "-//W3C//DTD SVG 1.1//EN" "http://www.w3.org/Graphics/SVG/1.1/DTD/svg11.dtd"><svg t="1650120510303" class="icon" viewBox="0 0 1024 1024" version="1.1" xmlns="http://www.w3.org/2000/svg" p-id="3138" xmlns:xlink="http://www.w3.org/1999/xlink" width="32" height="32"><defs><style type="text/css"></style></defs><path d="M0 512C0 229.248 229.248 0 512 0s512 229.248 512 512-229.248 512-512 512S0 794.752 0 512z" fill="#5A91F7" p-id="3139"></path><path d="M751.872 638.3104c64.128-49.408 75.904-141.44 26.496-205.568a146.24 146.24 0 0 0-129.664-56.32c8.96 23.552 13.568 48.512 13.568 73.728 0 64.896-30.08 126.08-81.536 165.632 49.536 19.2 81.536 49.024 81.536 82.816 0 25.472-18.176 48.768-48.128 66.816 15.872 2.816 32 4.096 48.128 4.096 81.024 0 146.688-32.896 146.688-73.344-0.128-23.552-22.528-44.544-57.088-57.856" fill="#D6E8FD" p-id="3140"></path><path d="M552.704 618.2144c91.648-70.784 108.544-202.368 37.76-293.888s-202.368-108.544-293.888-37.76-108.544 202.368-37.76 293.888c10.88 14.208 23.68 26.88 37.76 37.76-49.536 19.2-81.536 49.024-81.536 82.816 0 57.856 93.824 104.704 209.536 104.704s209.536-46.976 209.536-104.704c0.128-33.664-31.872-63.616-81.408-82.816" fill="#FFFFFF" p-id="3141"></path><path d="M424.704 577.1264c-49.024 0-93.184-29.312-112.256-74.496-4.608-11.52 1.024-24.448 12.544-29.056 11.136-4.352 23.68 0.64 28.672 11.648a77.2608 77.2608 0 0 0 101.248 41.088c18.56-7.808 33.28-22.528 41.088-41.088 4.864-11.392 18.048-16.512 29.312-11.648 11.264 4.864 16.512 17.792 11.776 29.056a121.6896 121.6896 0 0 1-112.384 74.496" fill="#5A91F7" p-id="3142"></path></svg>