<?xml version="1.0" standalone="no"?><!DOCTYPE svg PUBLIC "-//W3C//DTD SVG 1.1//EN" "http://www.w3.org/Graphics/SVG/1.1/DTD/svg11.dtd"><svg t="1650120442373" class="icon" viewBox="0 0 1058 1024" version="1.1" xmlns="http://www.w3.org/2000/svg" p-id="2385" xmlns:xlink="http://www.w3.org/1999/xlink" width="33.0625" height="32"><defs><style type="text/css"></style></defs><path d="M34.048 538.289102C34.048 270.055259 251.525054 52.578205 519.758898 52.578205s485.710898 217.477054 485.710897 485.710897-217.477054 485.710898-485.710897 485.710898S34.048 806.522946 34.048 538.289102z" fill="#32ABD1" p-id="2386"></path><path d="M654.057961 539.260524c-9.714218-21.128424-23.192695-40.435432-39.706866-56.949603a196.457915 196.457915 0 0 0-52.942488-37.88545V291.062255c0-22.706984 18.457014-41.163999 41.163999-41.163998h51.971066a134.299063 134.299063 0 0 0 97.506462 123.006285c17.60702 5.099964 29.749792 21.128424 29.749793 39.585438v32.785485c0 12.628483-10.078501 22.828412-22.706985 22.94984h-0.121427c-38.249733 0-75.163761-13.235622-104.792126-37.521166l-0.121428 108.556385z" fill="#CCEBF4" p-id="2387"></path><path d="M457.952186 626.567058m-166.963121 0a166.963121 166.963121 0 1 0 333.926242 0 166.963121 166.963121 0 1 0-333.926242 0Z" fill="#FFFFFF" p-id="2388"></path><path d="M459.045035 823.88711c-108.920669 0-197.320052-88.399383-197.320052-197.320052 0-52.335349 20.764141-102.484999 57.799597-139.520455 76.378039-77.713744 201.327167-78.928021 279.040911-2.549983s78.928021 201.327167 2.549982 279.040911l-2.549982 2.549982A196.518629 196.518629 0 0 1 459.045035 823.88711z m0-378.247361c-99.935017 0-180.927309 80.992292-180.927309 180.927309s80.992292 180.927309 180.927309 180.927309 180.927309-80.992292 180.92731-180.927309c-0.121428-99.935017-81.11372-180.805882-180.92731-180.927309z" fill="#FFFFFF" p-id="2389"></path><path d="M446.987262 723.624238L359.923584 598.67511a13.35705 13.35705 0 0 1 3.399976-18.69987c2.307127-1.57856 4.978537-2.428554 7.649947-2.428554h45.292541c5.707103 0 10.928495 3.764259 12.749911 9.228507L445.287274 635.831993a13.454192 13.454192 0 0 0 25.499822 0.121428l16.635599-49.178228a13.35705 13.35705 0 0 1 12.749911-9.10708h45.292541c7.407091 0 13.478477 5.949958 13.478477 13.35705 0 2.792838-0.849994 5.464248-2.428554 7.649947L469.087108 723.624238c-4.24997 6.071386-12.628483 7.528519-18.699869 3.399976-1.335705-0.971422-2.428554-2.064271-3.399977-3.399976" fill="#32ABD1" p-id="2390"></path></svg>