<?xml version="1.0" standalone="no"?><!DOCTYPE svg PUBLIC "-//W3C//DTD SVG 1.1//EN" "http://www.w3.org/Graphics/SVG/1.1/DTD/svg11.dtd"><svg t="1650120517632" class="icon" viewBox="0 0 1024 1024" version="1.1" xmlns="http://www.w3.org/2000/svg" p-id="3289" xmlns:xlink="http://www.w3.org/1999/xlink" width="32" height="32"><defs><style type="text/css"></style></defs><path d="M512 0c282.752 0 512 229.248 512 512S794.752 1024 512 1024 0 794.752 0 512 229.248 0 512 0z" fill="#F5A73D" p-id="3290"></path><path d="M341.8112 342.912h345.088c14.208 0 28.288 2.432 41.728 7.04-0.512-0.896-0.896-1.792-1.408-2.688l-64.768-112.128a86.3616 86.3616 0 0 0-117.888-31.616L332.8512 325.76c-9.6 5.504-18.048 12.928-24.832 21.632 11.136-2.944 22.4-4.48 33.792-4.48" fill="#FDEACA" opacity=".7" p-id="3291"></path><path d="M301.056 355.968h421.76a93.056 93.056 0 0 1 93.056 93.056v245.76a93.056 93.056 0 0 1-93.056 93.056H301.056a93.056 93.056 0 0 1-93.056-93.056v-245.76c0-51.328 41.728-93.056 93.056-93.056z" fill="#FFFFFF" p-id="3292"></path><path d="M648.064 499.968H800v144H648.064c-39.808 0-71.936-32.256-72.064-71.936a72.064 72.064 0 0 1 72.064-72.064z" fill="#F5A73D" p-id="3293"></path><path d="M608 572.032a48 40.064 0 1 0 96 0 48 40.064 0 1 0-96 0Z" fill="#FFFFFF" p-id="3294"></path></svg>