<?xml version="1.0" standalone="no"?><!DOCTYPE svg PUBLIC "-//W3C//DTD SVG 1.1//EN" "http://www.w3.org/Graphics/SVG/1.1/DTD/svg11.dtd"><svg t="1650120490086" class="icon" viewBox="0 0 1024 1024" version="1.1" xmlns="http://www.w3.org/2000/svg" p-id="2837" xmlns:xlink="http://www.w3.org/1999/xlink" width="32" height="32"><defs><style type="text/css"></style></defs><path d="M512 0c282.752 0 512 229.248 512 512S794.752 1024 512 1024 0 794.752 0 512 229.248 0 512 0z" fill="#5A91F7" p-id="2838"></path><path d="M301.12 415.936h421.76a93.056 93.056 0 0 1 93.056 93.056v213.76a93.056 93.056 0 0 1-93.056 93.056h-421.76a93.056 93.056 0 0 1-93.056-93.056v-213.76a93.056 93.056 0 0 1 93.056-93.056z" fill="#FFFFFF" p-id="2839"></path><path d="M350.528 207.936h322.944a46.592 46.592 0 0 1 46.592 46.592v82.944a46.592 46.592 0 0 1-46.592 46.592h-322.944a46.592 46.592 0 0 1-46.592-46.592v-82.944a46.6816 46.6816 0 0 1 46.592-46.592z" fill="#D6E8FD" p-id="2840"></path><path d="M384.064 239.936h256c13.312 0 24.064 10.752 24.064 24.064s-10.752 24.064-24.064 24.064h-256c-13.312 0-24.064-10.752-24.064-24.064s10.752-24.064 24.064-24.064zM392 303.936h240a32 32 0 0 1 0 64h-240a32 32 0 0 1 0-64zM570.56 580.672l-63.36-36.992c-19.968-11.648-47.872-0.128-47.872 19.84v102.784c0 19.968 27.904 31.36 47.872 19.84l35.328-20.608 10.88-6.4 11.008-6.4 6.144-3.584c3.072-1.792 5.888-3.84 8.576-6.272 4.096-3.712 7.424-8.192 9.728-13.184 2.176-4.608 3.328-9.728 3.328-14.848a39.7696 39.7696 0 0 0-21.632-34.176" fill="#5A91F7" p-id="2841"></path></svg>